<?xml version="1.0" standalone="no"?>
<!DOCTYPE svg PUBLIC "-//W3C//DTD SVG 20010904//EN"
 "http://www.w3.org/TR/2001/REC-SVG-20010904/DTD/svg10.dtd">
<svg version="1.0" xmlns="http://www.w3.org/2000/svg"
 width="512.000000pt" height="512.000000pt" viewBox="0 0 512.000000 512.000000"
 preserveAspectRatio="xMidYMid meet">
<metadata>
Created by potrace 1.14, written by Peter Selinger 2001-2017
</metadata>
<g transform="translate(0.000000,512.000000) scale(0.100000,-0.100000)"
fill="#000000" stroke="none">
<path d="M2375 5114 c-16 -2 -73 -9 -125 -15 -538 -60 -1076 -318 -1469 -702
-232 -228 -377 -428 -516 -712 -123 -252 -194 -477 -237 -750 -31 -200 -31
-550 0 -750 43 -278 115 -502 242 -760 382 -773 1113 -1293 1980 -1407 52 -7
192 -12 310 -12 118 0 258 5 310 12 532 70 1020 294 1405 645 252 230 430 467
580 772 123 249 194 476 237 750 31 200 31 550 0 750 -43 273 -114 498 -237
750 -126 258 -253 439 -450 643 -205 213 -404 364 -646 491 -377 198 -728 288
-1154 296 -110 2 -213 1 -230 -1z m1175 -1236 l0 -203 -785 -1115 c-772 -1096
-785 -1116 -785 -1162 l0 -48 785 0 785 0 0 -155 0 -155 -990 0 -990 0 0 198
1 197 784 1118 785 1117 0 50 0 50 -785 0 -785 0 0 155 0 155 990 0 990 0 0
-202z"/>
</g>
</svg>
